<svg xmlns="http://www.w3.org/2000/svg" width="20" height="20" viewBox="0 0 20 20">
  <g id="Group_70" data-name="Group 70" transform="translate(-958 -2790)">
    <g id="telephone-handle-silhouette" transform="translate(957.99 2790)">
      <path id="Path_45" data-name="Path 45" d="M19.966,15.5q-.085-.256-1.079-.753-.269-.157-.767-.426t-.9-.5q-.405-.227-.76-.44-.057-.043-.355-.249a3.992,3.992,0,0,0-.5-.305.93.93,0,0,0-.4-.1,1.179,1.179,0,0,0-.71.4,6.916,6.916,0,0,0-.781.881,8.564,8.564,0,0,1-.753.881,1.083,1.083,0,0,1-.653.4.966.966,0,0,1-.32-.071c-.128-.047-.225-.088-.291-.121s-.179-.1-.341-.2-.251-.154-.27-.163a14.927,14.927,0,0,1-3.338-2.471A14.919,14.919,0,0,1,5.266,8.934q-.014-.028-.163-.27t-.2-.341a3.078,3.078,0,0,1-.121-.291.961.961,0,0,1-.071-.32,1.082,1.082,0,0,1,.4-.653A8.555,8.555,0,0,1,6,6.306a6.913,6.913,0,0,0,.881-.781,1.179,1.179,0,0,0,.4-.71.927.927,0,0,0-.1-.4,3.948,3.948,0,0,0-.305-.5q-.206-.3-.249-.355-.213-.355-.44-.76t-.5-.9q-.27-.5-.426-.767Q4.769.128,4.513.043A.8.8,0,0,0,4.215,0a4.68,4.68,0,0,0-1,.142,5.625,5.625,0,0,0-.973.3A3.808,3.808,0,0,0,.734,2.173,5.507,5.507,0,0,0,.01,4.815a5.485,5.485,0,0,0,.05.746,6.128,6.128,0,0,0,.178.817q.128.454.206.675t.291.788q.213.568.256.7a12.866,12.866,0,0,0,1.179,2.486A21.061,21.061,0,0,0,5.23,14.779,21.071,21.071,0,0,0,8.987,17.84a12.886,12.886,0,0,0,2.486,1.179q.128.042.7.256t.788.291q.22.078.675.206a6.183,6.183,0,0,0,.817.178,5.269,5.269,0,0,0,3.388-.675,3.805,3.805,0,0,0,1.732-1.506,5.594,5.594,0,0,0,.3-.973,4.669,4.669,0,0,0,.142-1A.792.792,0,0,0,19.966,15.5Z" fill="#c0daee"/>
    </g>
    <rect id="Rectangle_168" data-name="Rectangle 168" width="20" height="20" transform="translate(958 2790)" fill="none"/>
  </g>
</svg>
