<svg xmlns="http://www.w3.org/2000/svg" width="20" height="20" viewBox="0 0 20 20">
  <path id="icons8-github" d="M13,3a10.169,10.169,0,0,0-2.423,20,1.5,1.5,0,0,1-.077-.493V20.771H9.243a1.733,1.733,0,0,1-1.587-.854c-.327-.617-.384-1.561-1.2-2.138-.241-.192-.057-.411.22-.382a2.625,2.625,0,0,1,1.337,1.034,1.279,1.279,0,0,0,1.33.651,9.41,9.41,0,0,0,1.409-.1,3.176,3.176,0,0,1,1.323-1.661C8.75,16.971,7.161,15.289,7.161,13a4.185,4.185,0,0,1,1.113-2.736c-.23-.8-.519-2.418.088-3.036a3.464,3.464,0,0,1,2.622,1.253,7.451,7.451,0,0,1,4.863,0,3.462,3.462,0,0,1,2.623-1.255c.61.619.318,2.248.085,3.042A4.184,4.184,0,0,1,19.663,13c0,2.283-1.587,3.964-4.912,4.314a3.576,3.576,0,0,1,1.583,2.874v2.314a1.511,1.511,0,0,1-.029.227A10.174,10.174,0,0,0,13,3Z" transform="translate(-3 -3)" fill="#c0daee"/>
</svg>
