<svg id="icons8-instagram" xmlns="http://www.w3.org/2000/svg" width="20" height="20" viewBox="0 0 20 20">
  <path id="Path_1" data-name="Path 1" d="M5.805,0A5.817,5.817,0,0,0,0,5.805v8.389A5.817,5.817,0,0,0,5.805,20h8.389A5.817,5.817,0,0,0,20,14.195V5.805A5.817,5.817,0,0,0,14.195,0Zm0,1.538h8.389a4.254,4.254,0,0,1,4.267,4.267v8.389a4.254,4.254,0,0,1-4.267,4.267H5.805a4.254,4.254,0,0,1-4.267-4.267V5.805A4.254,4.254,0,0,1,5.805,1.538Zm9.964,1.538a1.154,1.154,0,1,0,1.154,1.154A1.154,1.154,0,0,0,15.769,3.077ZM10,4.615A5.385,5.385,0,1,0,15.385,10,5.4,5.4,0,0,0,10,4.615Zm0,1.538A3.846,3.846,0,1,1,6.154,10,3.834,3.834,0,0,1,10,6.154Z" fill="#c0daee"/>
</svg>
