<svg xmlns="http://www.w3.org/2000/svg" width="20" height="20" viewBox="0 0 20 20">
  <g id="Group_69" data-name="Group 69" transform="translate(-634 -2914)">
    <g id="close-envelope" transform="translate(634 2915)">
      <g id="Group_68" data-name="Group 68" transform="translate(0 2)">
        <path id="Path_41" data-name="Path 41" d="M9.865,9.65,7.39,7.484.316,13.548a1.448,1.448,0,0,0,.987.387H18.426a1.437,1.437,0,0,0,.983-.387l-7.07-6.064Z" transform="translate(0.135 0.35)" fill="#c0daee"/>
        <path id="Path_42" data-name="Path 42" d="M19.412,2.387A1.439,1.439,0,0,0,18.425,2H1.3a1.433,1.433,0,0,0-.984.39l9.546,8.181Z" transform="translate(0.136 -2)" fill="#c0daee"/>
        <path id="Path_43" data-name="Path 43" d="M0,2.878V14.747L6.9,8.879Z" transform="translate(0 -1.624)" fill="#c0daee"/>
        <path id="Path_44" data-name="Path 44" d="M9.167,8.881l6.9,5.867V2.875Z" transform="translate(3.929 -1.625)" fill="#c0daee"/>
      </g>
    </g>
    <rect id="Rectangle_167" data-name="Rectangle 167" width="20" height="20" transform="translate(634 2914)" fill="none"/>
  </g>
</svg>
