<svg xmlns="http://www.w3.org/2000/svg" width="20" height="20" viewBox="0 0 20 20">
  <g id="Group_67" data-name="Group 67" transform="translate(-401 -2753)">
    <rect id="Rectangle_166" data-name="Rectangle 166" width="20" height="20" transform="translate(401 2753)" fill="none"/>
    <path id="icons8-telegram-app" d="M21.46,3.984a2.264,2.264,0,0,0-.745.181c-.208.084-1,.425-2.256.962L13.775,7.138,4.214,11.252a2.34,2.34,0,0,0-.628.34A1.6,1.6,0,0,0,3,12.785a1.573,1.573,0,0,0,.444,1.068,2.123,2.123,0,0,0,.734.457l3.816,1.561c.168.514,1.082,3.31,1.294,4a2.933,2.933,0,0,0,.446.96,1.2,1.2,0,0,0,.309.288.98.98,0,0,0,.156.076l0,0c.012,0,.023.014.036.018a.567.567,0,0,0,.072.016,1.206,1.206,0,0,0,1.156-.2l.018-.013,2.508-2.169,3.042,2.877a1.594,1.594,0,0,0,1.323.609,1.675,1.675,0,0,0,1.2-.542,1.809,1.809,0,0,0,.5-.942v0c.066-.349,2.869-14.74,2.869-14.74l0,.02a2.237,2.237,0,0,0,.013-1.068,1.456,1.456,0,0,0-.625-.851A1.5,1.5,0,0,0,21.46,3.984ZM21.3,5.725c0,.024,0,.012,0,.041l0,.01,0,.01s-2.768,14.207-2.871,14.748c.007-.041-.027.04-.062.089a1.186,1.186,0,0,0-.151-.078l-.016-.018L14.042,16.6,11.1,19.136l.874-3.5s5.463-5.655,5.792-5.984c.265-.263.321-.355.321-.446A.189.189,0,0,0,17.886,9a.923.923,0,0,0-.391.182C16.3,9.94,11.059,13,8.709,14.362L4.862,12.789l.011,0c2.04-.877,6.019-2.592,9.56-4.114,1.77-.761,3.431-1.474,4.684-2.012C20.35,6.129,21.207,5.765,21.3,5.725Z" transform="translate(398 2750.018)" fill="#c0daee"/>
  </g>
</svg>
